<?xml version="1.0"?>
<svg
    width="30"
    height="30"
    viewBox="0 0 640 480"
    xmlns="http://www.w3.org/2000/svg">
    <title>log</title>
    <metadata id="metadata4211">image/svg+xml</metadata>
    <g>
        <title>Layer 1</title>
        <g transform="rotate(32.07992935180664 295.3270874023434,290.3857421875001) " id="g3254">
            <path fill="#ffeeaa" stroke="#000000" stroke-width="2" stroke-miterlimit="4" id="path3256" d="m245.488434,294.291656a14.394931,18.627918 0 1 1-28.789856,2.700684a14.394931,18.627918 0 1 128.789856,-2.700684z"/>
            <path fill="#502d16" stroke="#000000" stroke-width="2" stroke-miterlimit="4" d="m224.546692,277.376038c45.205811,-2.760223 87.261688,-6.432404 124.031952,-11.634949c20.6604,3.602386 25.959686,32.389313 8.20636,36.993225c-33.001709,-4.746368 -82.578644,7.643585 -124.031937,11.634918c24.624344,-3.508514 12.755997,-38.089691 -8.206375,-36.993195z" id="path3258"/>
            <path fill="none" stroke="#000000" stroke-width="2" stroke-miterlimit="4" id="path3260" d="m239.542633,293.985107a9.965719,13.547574 0 1 1-19.931442,1.869659a9.965719,13.547574 0 1 119.931442,-1.869659z"/>
            <path fill="none" stroke="#000000" stroke-width="2" stroke-miterlimit="4" id="path3262" d="m234.803528,292.484863a5.649257,8.998363 0 1 1-11.298492,1.059906a5.649257,8.998363 0 1 111.298492,-1.059906z"/>
            <path fill="none" stroke="#000000" stroke-width="2" stroke-miterlimit="4" id="path3264" d="m233.149643,292.42395a4.042304,5.980608 0 1 1-8.08461,0.758392a4.042304,5.980608 0 1 18.08461,-0.758392z"/>
            <path fill="#000000" stroke="#000000" stroke-width="2" stroke-miterlimit="4" d="m230.053436,294.010864l8.265839,-11.462921l2.185699,1.885193l-10.451538,9.577728z" id="path3266"/>
            <path fill="#000000" stroke="#000000" stroke-width="2" stroke-miterlimit="4" d="m262.235931,281.657562l-22.407532,3.727356l-0.522339,-2.364197l22.929871,-1.363159z" id="path3268"/>
        </g>
        <path fill="#ffeeaa" stroke="#000000" stroke-width="4" stroke-miterlimit="4" d="m215.540497,349.065765a47.198231,68.089729 0 1 1-94.396454,9.871613a47.198231,68.089729 0 1 194.396454,-9.871613z" id="path3240"/>
        <path fill="#502d16" stroke="#000000" stroke-width="3.963646" stroke-miterlimit="4" id="path3242" d="m146.876526,287.234802c148.221252,-10.089233 286.114532,-23.512024 406.677185,-42.528625c67.741577,13.167603 85.116821,118.391022 26.907104,135.219452c-108.20639,-17.349091 -270.759674,27.939423 -406.67717,42.528625c80.73848,-12.824463 41.824478,-139.227356 -26.90712,-135.219452z"/>
        <path fill="none" stroke="#000000" stroke-width="4" stroke-miterlimit="4" d="m196.045349,347.945068a32.675694,49.519798 0 1 1-65.35141,6.834198a32.675694,49.519798 0 1 165.35141,-6.834198z" id="path3244"/>
        <path fill="none" stroke="#000000" stroke-width="4" stroke-miterlimit="4" d="m180.506744,342.461395a18.522835,32.891281 0 1 1-37.045654,3.874115a18.522835,32.891281 0 1 137.045654,-3.874115z" id="path3246"/>
        <path fill="none" stroke="#000000" stroke-width="4" stroke-miterlimit="4" d="m175.083908,342.238708a13.253944,21.860626 0 1 1-26.507858,2.772064a13.253944,21.860626 0 1 126.507858,-2.772064z" id="path3248"/>
        <path fill="#000000" stroke="#000000" stroke-width="4" stroke-miterlimit="4" id="path3250" d="m169.7789,358.212769l49.113327,20.247009l-3.592819,8.435364l-45.520508,-28.682373z"/>
        <path fill="#000000" stroke="#000000" stroke-width="4.650249" stroke-miterlimit="4" id="path3252" d="m292.747559,373.05777l-73.469971,13.624237l-1.71257,-8.641754l75.182541,-4.982483z"/>
        <path fill="none" fill-rule="evenodd" stroke="#000000" stroke-width="1px" id="path3292" d="m235.958557,398.719421l323.38269,-42.696198"/>
        <path fill="none" fill-rule="evenodd" stroke="#000000" stroke-width="1px" id="path3294" d="m234.106903,354.522552c109.501617,-8.638184 225.466248,0.61142 327.627411,-28.34317"/>
        <path fill="none" fill-rule="evenodd" stroke="#000000" stroke-width="1px" id="path3296" d="m231.635681,328.146759c105.920959,-6.27713 218.033356,5.775177 315.961426,-24.163849"/>
        <path fill="none" fill-rule="evenodd" stroke="#000000" stroke-width="1px" id="path3298" d="m219.642273,302.766724c132.084229,-1.581268 238.098053,-14.530457 333.851929,-31.953491"/>
        <path id="svg_1" d="m245.761002,274.571014l52.947006,0l6.408997,6.98999l-76.990005,-0.720001l17.634003,-6.269989z" transform="rotate(-5.52754020690918 266.6220016479492,278.0660095214844)" stroke-linecap="null" stroke-linejoin="null" stroke-dasharray="null" stroke-width="0" stroke="#000000" fill="#512c11"/>
    </g>
</svg>